<svg xmlns="http://www.w3.org/2000/svg" width="1200" height="630" viewBox="0 0 1200 630">
  <defs>
    <linearGradient id="bg" x1="0" y1="0" x2="1" y2="1">
      <stop offset="0%" stop-color="#102a43" />
      <stop offset="100%" stop-color="#0a0e1a" />
    </linearGradient>
    <linearGradient id="line" x1="0" y1="0" x2="1" y2="0">
      <stop offset="0%" stop-color="#6dc3ff" stop-opacity="0.2" />
      <stop offset="100%" stop-color="#6dc3ff" stop-opacity="0.9" />
    </linearGradient>
  </defs>
  <rect width="1200" height="630" fill="url(#bg)" />

  <g opacity="0.75">
    <circle cx="210" cy="190" r="26" fill="#6dc3ff" />
    <circle cx="440" cy="145" r="22" fill="#6dc3ff" />
    <circle cx="620" cy="260" r="30" fill="#ffd166" />
    <circle cx="360" cy="340" r="24" fill="#6dc3ff" />
    <circle cx="550" cy="420" r="28" fill="#6dc3ff" />
    <circle cx="760" cy="380" r="24" fill="#6dc3ff" />
    <circle cx="880" cy="240" r="20" fill="#ffd166" />
    <circle cx="980" cy="430" r="24" fill="#6dc3ff" />
    <path d="M236 197 L418 152 L595 248 L385 330 L524 406 L736 370 L860 252 L960 417" stroke="url(#line)" stroke-width="7" fill="none" stroke-linecap="round" />
  </g>

  <g transform="translate(120,120)">
    <rect x="0" y="0" width="540" height="190" rx="20" fill="rgba(10,14,26,0.62)" stroke="rgba(255,255,255,0.16)" />
    <text x="34" y="78" fill="#ffffff" font-size="62" font-family="Inter, Arial, sans-serif" font-weight="700">Mapa Societario</text>
    <text x="34" y="128" fill="#cde7ff" font-size="31" font-family="Inter, Arial, sans-serif" font-weight="500">Empresas y administradores en España</text>
  </g>
</svg>
